<?xml version="1.0" encoding="UTF-8" standalone="no"?>
<svg
   width="180"
   height="180"
   viewBox="0 0 180 180"
   version="1.1"
   id="svg1"
   xmlns:inkscape="http://www.inkscape.org/namespaces/inkscape"
   xmlns:sodipodi="http://sodipodi.sourceforge.net/DTD/sodipodi-0.dtd"
   xmlns="http://www.w3.org/2000/svg"
   xmlns:svg="http://www.w3.org/2000/svg">
  <sodipodi:namedview
     id="namedview1"
     pagecolor="#ffffff"
     bordercolor="#000000"
     borderopacity="0.25"
     inkscape:showpageshadow="2"
     inkscape:pageopacity="0.0"
     inkscape:pagecheckerboard="0"
     inkscape:deskcolor="#d1d1d1"
     inkscape:document-units="px" />
  <defs
     id="defs1" />
  <g
     inkscape:label="Layer 1"
     inkscape:groupmode="layer"
     id="layer1"
     style="display:inline">
    <g
       id="group_7"
       transform="matrix(2.4703999,0,0,2.4703999,-2.9863078,-68.585456)">
      <g
         id="group_8">
        <g
           id="group_9">
          <path
             fill="#0f6fec"
             stroke="#000000"
             stroke-width="1"
             d="m 18,19 c 0,2.07 -2,2 -3,2 -1,0 -1.5,-0.3 -3,-0.3 -1.5,0 -2,0.3 -3,0.3 -1,0 -3,0 -3,-2 0,-1.01 1,-2.02 2,-4 1,-1.98 1.89,-4 4,-4 2.11,0 3,2.03 4,4 1,1.97 2,2.92 2,4 z M 5.93,14.86 C 4.8,15.36 3.24,14.47 2.45,12.89 1.66,11.31 1.94,9.63 3.07,9.14 c 1.13,-0.5 2.69,0.39 3.48,1.97 0.79,1.58 0.51,3.26 -0.62,3.75 z m 12.14,0 c -1.13,-0.49 -1.41,-2.17 -0.62,-3.75 0.79,-1.58 2.35,-2.47 3.48,-1.97 1.13,0.49 1.41,2.17 0.62,3.75 -0.79,1.58 -2.35,2.47 -3.48,1.97 z M 9.34,9.98 C 8.01,10.2 6.64,8.83 6.28,6.91 5.93,4.99 6.72,3.25 8.06,3.02 9.39,2.8 10.76,4.17 11.12,6.09 11.47,8.01 10.68,9.75 9.34,9.98 Z m 5.32,0 C 13.32,9.75 12.53,8.01 12.88,6.09 13.24,4.17 14.61,2.8 15.94,3.02 c 1.34,0.23 2.13,1.97 1.78,3.89 -0.36,1.92 -1.73,3.29 -3.06,3.07 z"
             transform="matrix(3.472222,0,0,3.472222,-4,22)"
             vector-effect="non-scaling-stroke"
             pen="1,1"
             id="path1" />
        </g>
      </g>
    </g>
  </g>
</svg>
